<?xml version="1.0" encoding="UTF-8" standalone="no"?>
<!-- Created with Inkscape (http://www.inkscape.org/) -->

<svg
   width="1200"
   height="400"
   viewBox="0 0 317.5 105.83333"
   version="1.1"
   id="svg5"
   inkscape:version="1.3.2 (091e20e, 2023-11-25, custom)"
   sodipodi:docname="banner.svg"
   xml:space="preserve"
   inkscape:export-filename="banner.png"
   inkscape:export-xdpi="96"
   inkscape:export-ydpi="96"
   xmlns:inkscape="http://www.inkscape.org/namespaces/inkscape"
   xmlns:sodipodi="http://sodipodi.sourceforge.net/DTD/sodipodi-0.dtd"
   xmlns="http://www.w3.org/2000/svg"
   xmlns:svg="http://www.w3.org/2000/svg"><sodipodi:namedview
     id="namedview7"
     pagecolor="#505050"
     bordercolor="#eeeeee"
     borderopacity="1"
     inkscape:showpageshadow="0"
     inkscape:pageopacity="0"
     inkscape:pagecheckerboard="0"
     inkscape:deskcolor="#505050"
     inkscape:document-units="px"
     showgrid="false"
     inkscape:zoom="0.35455948"
     inkscape:cx="964.57723"
     inkscape:cy="612.02707"
     inkscape:window-width="1920"
     inkscape:window-height="991"
     inkscape:window-x="-9"
     inkscape:window-y="-9"
     inkscape:window-maximized="1"
     inkscape:current-layer="layer1" /><defs
     id="defs2" /><g
     inkscape:label="Layer 1"
     inkscape:groupmode="layer"
     id="layer1"><rect
       style="fill:#161a30;fill-opacity:1;stroke:#f5cdb8;stroke-width:0;stroke-linecap:round;paint-order:stroke fill markers"
       id="rect234"
       width="317.5"
       height="105.83333"
       x="1.4376655e-08"
       y="-1.7097982e-06" /><g
       id="g15"
       transform="matrix(0.54921653,0,0,0.54921653,2.6872898,-17.952741)"><g
         id="g3"><path
           style="font-weight:300;font-size:50.8px;font-family:'Mona Sans';-inkscape-font-specification:'Mona Sans Light';text-align:center;text-anchor:middle;fill:#ffffff;stroke:#f5cdb8;stroke-width:0;stroke-linecap:round;paint-order:stroke fill markers"
           d="M 52.916672,117.79176 V 80.758564 h 3.1496 v 17.4752 l -0.6604,-0.6604 h 25.349199 l -0.6604,0.6604 v -17.4752 h 3.1496 v 37.033196 h -3.1496 V 99.757764 l 0.6604,0.660396 H 55.405872 l 0.6604,-0.660396 v 18.033996 z m 39.420762,0 V 91.324964 h 2.9972 v 26.466796 z m 0,-31.191196 v -5.842 h 2.9972 v 5.842 z m 56.743416,38.811196 v -1.8288 l 0.4572,-0.0508 q 1.0668,-0.0508 1.4224,-0.8636 0.4064,-0.8128 0.4064,-1.9812 v -2.8956 h -1.4732 v -3.8608 h 3.2512 v 7.0612 q 0,2.1844 -0.8636,3.2004 -0.8128,1.0668 -2.4892,1.2192 z m 23.97752,-7.62 V 80.758564 h 3.1496 v 37.033196 z m 13.51276,-22.250396 h -1.4732 l -0.6096,-8.128 v -6.6548 h 2.6924 v 6.6548 z m 8.02644,22.250396 V 91.324964 h 2.794 l 0.1524,5.7404 h 0.2032 q 1.27,-3.048 3.81,-4.572 2.54,-1.5748 5.6388,-1.5748 3.0988,0 5.4356,1.524 2.3876,1.524 3.3528,5.0292 h 0.4064 q 1.27,-3.2512 3.9116,-4.8768 2.6416,-1.6764 5.9436,-1.6764 2.6924,0 4.826,1.1684 2.1336,1.1176 3.302,3.6068 1.2192,2.4892 1.2192,6.603996 v 15.494 h -2.9464 v -14.9352 q 0,-3.200396 -0.8128,-5.283196 -0.762,-2.0828 -2.3876,-3.048 -1.5748,-1.016 -4.064,-1.016 -2.6416,0 -4.6228,1.3208 -1.9812,1.3208 -3.0988,3.6068 -1.0668,2.235196 -1.0668,5.181596 v 14.1732 h -2.9972 v -14.9352 q 0,-3.200396 -0.8128,-5.283196 -0.8128,-2.0828 -2.3876,-3.048 -1.5748,-1.016 -4.0132,-1.016 -2.6924,0 -4.6736,1.3208 -1.9812,1.3208 -3.0988,3.6068 -1.0668,2.235196 -1.0668,5.181596 v 14.1732 z"
           id="text1683"
           aria-label="Hi    , I'm " /><g
           id="g1"
           transform="matrix(1.1772994,0,0,1.1772994,108.53766,79.325553)"><path
             fill="#ef9645"
             d="M 4.861,9.147 C 5.801,8.49 7.218,8.616 8.062,9.313 L 7.094,7.906 C 6.315,6.795 6.594,5.593 7.706,4.813 8.818,4.036 11.969,6.125 11.969,6.125 11.183,5.003 11.33,3.581 12.452,2.794 13.574,2.01 15.122,2.281 15.908,3.405 L 26.328,18.125 25,31 13.917,26.958 4.25,12.625 C 3.457,11.496 3.731,9.939 4.861,9.147 Z"
             id="path1" /><path
             fill="#ffdc5d"
             d="m 2.695,17.336 c 0,0 -1.132,-1.65 0.519,-2.781 1.649,-1.131 2.78,0.518 2.78,0.518 l 5.251,7.658 c 0.181,-0.302 0.379,-0.6 0.6,-0.894 L 4.557,11.21 c 0,0 -1.131,-1.649 0.519,-2.78 1.649,-1.131 2.78,0.518 2.78,0.518 l 6.855,9.997 c 0.255,-0.208 0.516,-0.417 0.785,-0.622 L 7.549,6.732 c 0,0 -1.131,-1.649 0.519,-2.78 1.649,-1.131 2.78,0.518 2.78,0.518 l 7.947,11.589 c 0.292,-0.179 0.581,-0.334 0.871,-0.498 L 12.238,4.729 c 0,0 -1.131,-1.649 0.518,-2.78 1.649,-1.131 2.78,0.518 2.78,0.518 l 7.854,11.454 1.194,1.742 c -4.948,3.394 -5.419,9.779 -2.592,13.902 0.565,0.825 1.39,0.26 1.39,0.26 -3.393,-4.949 -2.357,-10.51 2.592,-13.903 L 24.515,8.62 c 0,0 -0.545,-1.924 1.378,-2.47 1.924,-0.545 2.47,1.379 2.47,1.379 l 1.685,5.004 c 0.668,1.984 1.379,3.961 2.32,5.831 2.657,5.28 1.07,11.842 -3.94,15.279 -5.465,3.747 -12.936,2.354 -16.684,-3.11 z"
             id="path2" /><g
             fill="#5dadec"
             id="g5"><path
               d="M 12,32.042 C 8,32.042 3.958,28 3.958,24 3.958,23.447 3.553,23 3,23 2.447,23 1.958,23.447 1.958,24 1.958,30 6,34.042 12,34.042 c 0.553,0 1,-0.489 1,-1.042 0,-0.553 -0.447,-0.958 -1,-0.958 z"
               id="path3" /><path
               d="M 7,34 C 4,34 2,32 2,29 2,28.447 1.553,28 1,28 0.447,28 0,28.447 0,29 0,33 3,36 7,36 7.553,36 8,35.553 8,35 8,34.447 7.553,34 7,34 Z M 24,2 c -0.552,0 -1,0.448 -1,1 0,0.552 0.448,1 1,1 4,0 8,3.589 8,8 0,0.552 0.448,1 1,1 0.552,0 1,-0.448 1,-1 C 34,6.486 30,2 24,2 Z"
               id="path4" /><path
               d="m 29,0.042 c -0.552,0 -1,0.406 -1,0.958 0,0.552 0.448,1.042 1,1.042 3,0 4.958,2.225 4.958,4.958 0,0.552 0.489,1 1.042,1 0.553,0 0.958,-0.448 0.958,-1 C 35.958,3.163 33,0.042 29,0.042 Z"
               id="path5" /></g></g></g><g
         id="g4"><path
           style="font-weight:600;font-size:56.4444px;font-family:'Mona Sans';-inkscape-font-specification:'Mona Sans Semi-Bold';text-align:center;text-anchor:middle;fill:#ffffff;stroke:#f5cdb8;stroke-width:0;stroke-linecap:round;paint-order:stroke fill markers"
           d="m 52.91667,178.19156 v -41.14797 h 9.031104 l 19.303985,30.98798 h 0.338666 L 81.308203,154.5978 v -17.55421 h 7.168439 v 41.14797 h -8.579549 l -19.24754,-30.47998 h -0.395111 l 0.225777,12.30488 v 18.1751 z m 54.29953,0.508 q -2.70933,0 -4.9671,-0.95956 -2.20134,-1.016 -3.838223,-2.99155 -1.580443,-1.97555 -2.427109,-4.85422 -0.846666,-2.93511 -0.846666,-6.71688 0,-5.13644 1.467554,-8.57955 1.523999,-3.49955 4.233334,-5.24933 2.76577,-1.74978 6.37821,-1.74978 2.48356,0 4.40267,0.79023 1.97555,0.73377 3.38666,2.08844 1.41111,1.35466 2.14489,3.21733 h 0.39511 l 0.28222,-5.53155 h 6.77333 v 30.02842 h -7.05555 v -5.588 h -0.39511 q -1.07245,2.76578 -3.66889,4.45911 -2.59644,1.63689 -6.26533,1.63689 z m 2.65289,-5.75733 q 2.54,0 4.17689,-1.18533 1.69333,-1.18534 2.53999,-3.048 0.84667,-1.91911 0.84667,-4.00755 v -3.10444 q 0,-2.14489 -0.84667,-4.00756 -0.84666,-1.91911 -2.53999,-3.048 -1.63689,-1.18533 -4.17689,-1.18533 -2.25778,0 -3.95111,1.07245 -1.69333,1.07244 -2.65288,3.27377 -0.95956,2.14489 -0.95956,5.47511 0,3.21733 0.95956,5.41866 0.95955,2.20133 2.65288,3.27378 1.69333,1.07244 3.95111,1.07244 z m 28.89949,5.24933 -10.49865,-30.08487 h 7.61999 l 5.24933,17.27199 1.86266,6.88622 h 0.22578 l 1.86267,-6.82978 5.24933,-17.32843 h 7.61999 l -10.44221,30.08487 z m 34.90675,0.508 q -4.62844,0 -7.90222,-1.91911 -3.27377,-1.91911 -5.07999,-5.36222 -1.74978,-3.44311 -1.74978,-8.07155 0,-4.79777 1.74978,-8.29733 1.74977,-3.55599 5.02355,-5.4751 3.27378,-1.97556 7.67644,-1.97556 5.13644,0 8.41021,2.25778 3.27378,2.25778 4.68489,6.09599 1.46755,3.83822 0.95955,8.74889 H 165.886 q 0,2.70933 0.95956,4.62844 1.016,1.91911 2.76577,2.93511 1.74978,1.016 4.064,1.016 2.70933,0 4.572,-1.18534 1.86266,-1.24177 2.37066,-3.27377 h 6.71689 q -0.39512,2.93511 -2.25778,5.19288 -1.86267,2.20133 -4.79777,3.44311 -2.93511,1.24178 -6.604,1.24178 z m -7.78933,-17.83643 -0.62089,-0.90311 h 15.97377 l -0.67733,0.90311 q 0.11289,-2.70933 -0.84667,-4.40267 -0.90311,-1.74977 -2.59644,-2.59644 -1.63689,-0.84666 -3.72533,-0.84666 -2.25778,0 -3.95111,0.95955 -1.63689,0.95956 -2.59644,2.70933 -0.90311,1.74978 -0.95956,4.17689 z m 40.80937,17.83643 q -4.62845,0 -7.90222,-1.91911 -3.27378,-1.91911 -5.08,-5.36222 -1.74977,-3.44311 -1.74977,-8.07155 0,-4.79777 1.74977,-8.29733 1.74978,-3.55599 5.02355,-5.4751 3.27378,-1.97556 7.67644,-1.97556 5.13644,0 8.41022,2.25778 3.27377,2.25778 4.68488,6.09599 1.46756,3.83822 0.95956,8.74889 h -21.56176 q 0,2.70933 0.95955,4.62844 1.016,1.91911 2.76578,2.93511 1.74977,1.016 4.064,1.016 2.70933,0 4.57199,-1.18534 1.86267,-1.24177 2.37067,-3.27377 h 6.71688 q -0.39511,2.93511 -2.25778,5.19288 -1.86266,2.20133 -4.79777,3.44311 -2.93511,1.24178 -6.60399,1.24178 z m -7.78933,-17.83643 -0.62089,-0.90311 h 15.97377 l -0.67734,0.90311 q 0.11289,-2.70933 -0.84666,-4.40267 -0.90311,-1.74977 -2.59645,-2.59644 -1.63688,-0.84666 -3.72533,-0.84666 -2.25777,0 -3.9511,0.95955 -1.63689,0.95956 -2.59645,2.70933 -0.90311,1.74978 -0.95955,4.17689 z m 27.37557,17.32843 v -30.02842 h 6.77333 l 0.28222,5.70088 h 0.33866 q 1.29823,-3.16088 3.95111,-4.68488 2.65289,-1.58045 5.92666,-1.58045 2.25778,0 4.17689,0.73378 1.97555,0.67733 3.38666,2.20133 1.46756,1.46756 2.25778,3.89467 0.84667,2.37066 0.84667,5.75732 v 18.00577 h -7.05555 v -16.48177 q 0,-2.82222 -0.67734,-4.62844 -0.67733,-1.86266 -2.08844,-2.76577 -1.35466,-0.90311 -3.556,-0.90311 -2.37066,0 -4.06399,1.12888 -1.63689,1.12889 -2.54,2.99156 -0.90311,1.86266 -0.90311,4.12044 v 16.53821 z m 48.4858,0 v -41.14797 h 11.34532 l 9.93422,29.18176 h 0.33866 l 9.87777,-29.18176 h 11.40177 v 41.14797 h -7.28132 v -17.72354 l 0.11288,-15.57866 h -0.39511 l -10.89377,33.3022 h -5.92666 l -10.95021,-33.3022 h -0.45156 l 0.16934,15.6351 v 17.6671 z m 64.62887,0 v -41.14797 h 7.45066 v 20.54576 l 17.94932,-20.54576 h 8.97466 l -15.46576,17.10265 15.74799,24.04532 h -8.86177 l -12.02266,-18.6831 -6.32178,6.88622 v 11.79688 z"
           id="text1"
           aria-label="Naveen M K" /><g
           id="g2"
           transform="matrix(1.2026515,0,0,1.2026515,387.56326,135.01297)"><path
             fill="#ffac33"
             d="M 34.347,16.893 25.448,13.599 22.125,2.708 C 21.997,2.288 21.608,2 21.169,2 20.73,2 20.341,2.288 20.213,2.708 l -3.322,10.891 -8.9,3.294 c -0.393,0.146 -0.653,0.519 -0.653,0.938 0,0.418 0.26,0.793 0.653,0.938 l 8.895,3.293 3.324,11.223 c 0.126,0.424 0.516,0.715 0.959,0.715 0.442,0 0.833,-0.291 0.959,-0.716 l 3.324,-11.223 8.896,-3.293 C 34.739,18.624 35,18.25 35,17.831 35,17.413 34.739,17.039 34.347,16.893 Z"
             id="path1-6" /><path
             fill="#ffcc4d"
             d="m 14.347,27.894 -2.314,-0.856 -0.9,-3.3 C 11.015,23.302 10.62,23 10.169,23 9.718,23 9.323,23.302 9.204,23.737 l -0.9,3.3 -2.313,0.856 c -0.393,0.145 -0.653,0.52 -0.653,0.938 0,0.418 0.26,0.793 0.653,0.938 l 2.301,0.853 0.907,3.622 C 9.311,34.688 9.71,35 10.169,35 c 0.459,0 0.858,-0.312 0.97,-0.757 l 0.907,-3.622 2.301,-0.853 C 14.74,29.624 15,29.249 15,28.831 15,28.413 14.74,28.038 14.347,27.894 Z M 10.009,6.231 7.645,5.356 6.769,2.991 C 6.624,2.598 6.25,2.338 5.831,2.338 5.413,2.338 5.039,2.598 4.893,2.991 L 4.018,5.356 1.653,6.231 C 1.26,6.377 1,6.751 1,7.169 1,7.587 1.26,7.962 1.653,8.107 l 2.365,0.875 0.875,2.365 C 5.039,11.74 5.413,12 5.831,12 6.249,12 6.623,11.74 6.769,11.347 L 7.644,8.982 10.009,8.107 c 0.393,-0.146 0.653,-0.52 0.653,-0.938 0,-0.418 -0.26,-0.792 -0.653,-0.938 z"
             id="path2-1" /></g></g></g></g></svg>
